<svg width="400" height="400" viewBox="0 0 400 400" fill="none" xmlns="http://www.w3.org/2000/svg">
<path d="M282.361 163.899C282.385 164.024 282.406 164.144 282.423 164.272C282.406 164.144 282.381 164.024 282.361 163.899Z" fill="#96F865" stroke="#96F865" stroke-width="0.14607" stroke-miterlimit="10"/>
<path d="M282.485 164.637C282.497 164.758 282.506 164.878 282.51 164.998C282.506 164.878 282.493 164.758 282.485 164.637Z" fill="#96F865" stroke="#96F865" stroke-width="0.14607" stroke-miterlimit="10"/>
<path d="M249.873 117.291L281.517 161.764C281.638 161.934 281.749 162.121 281.849 162.311C281.749 162.121 281.642 161.934 281.517 161.764L249.873 117.291C249.786 117.171 249.699 117.059 249.604 116.956C249.695 117.059 249.786 117.171 249.873 117.291Z" fill="#96F865"/>
<path d="M249.873 117.291L281.517 161.764M249.873 117.291C249.786 117.171 249.699 117.059 249.604 116.956C249.695 117.059 249.786 117.171 249.873 117.291ZM281.517 161.764C281.638 161.934 281.749 162.121 281.849 162.311C281.749 162.121 281.642 161.934 281.517 161.764Z" stroke="#96F865" stroke-width="0.14607" stroke-miterlimit="10"/>
<path d="M282.367 167.069C282.354 167.14 282.342 167.214 282.33 167.285" stroke="#96F865" stroke-width="0.14607" stroke-miterlimit="10"/>
<path d="M282.483 166.23C282.475 166.325 282.466 166.425 282.454 166.524C282.462 166.425 282.475 166.33 282.483 166.23Z" fill="#96F865" stroke="#96F865" stroke-width="0.14607" stroke-miterlimit="10"/>
<path d="M249.377 116.717C249.377 116.717 249.341 116.681 249.324 116.66C249.345 116.677 249.361 116.697 249.377 116.717Z" fill="#96F865" stroke="#96F865" stroke-width="0.14607" stroke-miterlimit="10"/>
<path d="M281.926 162.516C281.984 162.645 282.046 162.777 282.095 162.914" stroke="#96F865" stroke-width="0.14607" stroke-miterlimit="10"/>
<path d="M282.205 163.192C282.242 163.317 282.284 163.441 282.313 163.573C282.28 163.441 282.242 163.317 282.205 163.192Z" fill="#96F865" stroke="#96F865" stroke-width="0.14607" stroke-miterlimit="10"/>
<path d="M282.222 167.916C282.217 167.941 282.209 167.961 282.205 167.986" stroke="#96F865" stroke-width="0.14607" stroke-miterlimit="10"/>
<path d="M259.238 282.115C259.271 282.103 259.3 282.091 259.332 282.074C259.3 282.087 259.271 282.099 259.238 282.115Z" fill="#96F865" stroke="#96F865" stroke-width="0.14607" stroke-miterlimit="10"/>
<path d="M297.234 183.966C297.234 183.966 297.201 183.93 297.185 183.914C297.201 183.93 297.217 183.95 297.234 183.966Z" fill="#96F865" stroke="#96F865" stroke-width="0.14607" stroke-miterlimit="10"/>
<path d="M158.553 327.617L189.845 246.802C191.195 243.31 193.664 240.369 196.204 238.898C197.45 238.177 198.714 237.813 199.87 237.912L219.903 239.631C221.282 239.751 222.79 239.316 224.277 238.459C227.305 236.711 230.242 233.206 231.853 229.043C234.26 222.838 232.806 217.507 228.61 217.146L208.577 215.427C205.06 215.125 203.838 210.647 205.855 205.44L237.139 124.633C238.548 121 241.017 118.163 243.49 116.738C245.383 115.644 247.276 115.379 248.697 116.207L178.631 75.483C177.206 74.6587 175.313 74.9238 173.424 76.0174C170.951 77.4465 168.482 80.2799 167.074 83.9129L133.72 171.597C133.544 172.06 133.733 172.582 134.165 172.824L161.788 188.323C160.177 192.486 157.24 195.991 154.212 197.739C152.725 198.596 151.217 199.031 149.837 198.911L129.804 197.192C128.645 197.093 127.381 197.457 126.138 198.178C123.599 199.644 121.13 202.585 119.78 206.082L88.4836 286.897C86.7148 291.47 87.4646 295.136 89.6725 296.42L159.742 337.14C157.534 335.856 156.738 331.689 158.553 327.617Z" stroke="#96F865" stroke-width="7" stroke-miterlimit="10"/>
<path d="M307.017 197.582L297.726 184.521C297.643 184.405 297.556 184.297 297.465 184.193" stroke="#96F865" stroke-width="0.14607" stroke-miterlimit="10"/>
<path d="M258.928 282.25C258.928 282.25 258.963 282.24 258.978 282.23C258.963 282.235 258.943 282.24 258.928 282.25Z" fill="#96F865" stroke="#96F865" stroke-width="0.14607" stroke-miterlimit="10"/>
<path d="M282.52 165.422C282.52 165.534 282.52 165.646 282.516 165.758C282.516 165.646 282.52 165.534 282.52 165.422Z" fill="#96F865" stroke="#96F865" stroke-width="0.14607" stroke-miterlimit="10"/>
<path d="M258.586 282.37C258.586 282.37 258.595 282.37 258.605 282.37C258.605 282.37 258.595 282.37 258.586 282.37Z" fill="#96F865" stroke="#96F865" stroke-width="0.14607" stroke-miterlimit="10"/>
<path d="M161.653 337.627C161.736 337.627 161.823 337.627 161.905 337.619C161.818 337.623 161.736 337.627 161.653 337.627Z" fill="#96F865" stroke="#96F865" stroke-width="0.14607" stroke-miterlimit="10"/>
<path d="M162.554 337.541C162.649 337.525 162.74 337.504 162.836 337.479C162.74 337.504 162.645 337.521 162.554 337.541Z" fill="#96F865" stroke="#96F865" stroke-width="0.14607" stroke-miterlimit="10"/>
<path d="M162.057 337.614C162.181 337.602 162.309 337.585 162.438 337.565" stroke="#96F865" stroke-width="0.14607" stroke-miterlimit="10"/>
<path d="M162.989 337.447C163.109 337.414 163.233 337.377 163.354 337.339C163.229 337.381 163.109 337.418 162.989 337.447Z" fill="#96F865" stroke="#96F865" stroke-width="0.14607" stroke-miterlimit="10"/>
<path d="M235.2 287.588C235.212 292.248 231.931 297.936 227.872 300.276C231.927 297.936 235.212 292.248 235.2 287.588Z" fill="#96F865"/>
<path d="M235.2 287.588C235.212 292.248 231.931 297.936 227.872 300.276M235.2 287.588C235.212 292.248 231.927 297.936 227.872 300.276M235.2 287.588L235.175 279.013M227.872 300.276L187.976 323.308" stroke="#96F865" stroke-width="0.14607" stroke-miterlimit="10"/>
<path d="M259.713 281.888C259.667 281.913 259.626 281.929 259.58 281.954C259.626 281.933 259.667 281.913 259.713 281.888Z" fill="#96F865" stroke="#96F865" stroke-width="0.14607" stroke-miterlimit="10"/>
<path d="M163.424 337.311C163.569 337.261 163.714 337.203 163.863 337.145C163.714 337.207 163.569 337.261 163.424 337.311Z" fill="#96F865" stroke="#96F865" stroke-width="0.14607" stroke-miterlimit="10"/>
<path d="M323.04 245.345C325.518 243.916 327.581 241.377 328.881 238.635C327.581 241.377 325.514 243.916 323.04 245.345Z" fill="#96F865"/>
<path d="M323.04 245.345L260.113 281.679C260.051 281.716 259.984 281.749 259.922 281.782M323.04 245.345C325.518 243.916 327.581 241.377 328.881 238.635C327.581 241.377 325.514 243.916 323.04 245.345Z" stroke="#96F865" stroke-width="0.14607" stroke-miterlimit="10"/>
<path d="M161.12 337.599C161.017 337.586 160.913 337.57 160.814 337.549" stroke="#96F865" stroke-width="0.14607" stroke-miterlimit="10"/>
<path d="M159.981 337.273C159.906 337.236 159.832 337.198 159.757 337.153C159.832 337.194 159.906 337.236 159.981 337.273Z" fill="#96F865" stroke="#96F865" stroke-width="0.14607" stroke-miterlimit="10"/>
<path d="M160.633 337.509C160.579 337.497 160.526 337.48 160.472 337.464C160.526 337.48 160.579 337.493 160.633 337.509Z" fill="#96F865" stroke="#96F865" stroke-width="0.14607" stroke-miterlimit="10"/>
<path d="M160.302 337.405C160.252 337.388 160.206 337.368 160.161 337.347C160.206 337.368 160.256 337.384 160.302 337.405Z" fill="#96F865" stroke="#96F865" stroke-width="0.14607" stroke-miterlimit="10"/>
<path d="M161.487 337.631C161.416 337.631 161.346 337.623 161.28 337.619C161.35 337.623 161.416 337.631 161.487 337.631Z" fill="#96F865" stroke="#96F865" stroke-width="0.14607" stroke-miterlimit="10"/>
<path d="M164.015 337.093C164.126 337.043 164.242 336.993 164.354 336.935C164.238 336.989 164.126 337.043 164.015 337.093Z" fill="#96F865" stroke="#96F865" stroke-width="0.14607" stroke-miterlimit="10"/>
<path d="M164.481 336.869C164.634 336.791 164.792 336.708 164.949 336.617" stroke="#96F865" stroke-width="0.14607" stroke-miterlimit="10"/>
<path d="M329.593 236.855C329.456 237.253 329.303 237.651 329.133 238.044" stroke="#96F865" stroke-width="0.14607" stroke-miterlimit="10"/>
<path d="M237.129 124.634C238.537 121.001 241.006 118.164 243.479 116.739C245.952 115.31 248.429 115.289 249.854 117.29L281.498 161.763C283.537 164.629 282.348 170.495 278.843 174.853L258.885 199.662C254.705 204.857 253.288 211.845 255.72 215.263C257.352 217.553 260.302 217.661 263.326 215.913C264.813 215.055 266.316 213.751 267.692 212.04L287.65 187.231C288.802 185.797 290.065 184.704 291.308 183.983C293.847 182.517 296.324 182.604 297.691 184.526L329.331 229.003C332.177 233.005 328.664 242.081 323.006 245.345L260.078 281.678C256.022 284.019 252.717 282.138 252.704 277.478L252.63 250.941C252.613 245.382 248.678 243.137 243.844 245.929C239.009 248.721 235.099 255.494 235.116 261.053L235.19 287.59C235.203 292.25 231.922 297.937 227.862 300.278L164.934 336.611C159.276 339.88 155.722 334.884 158.534 327.614L189.826 246.799C191.177 243.307 193.646 240.366 196.185 238.895C197.432 238.174 198.695 237.81 199.851 237.909L219.884 239.628C221.263 239.749 222.771 239.314 224.258 238.456C227.286 236.708 230.223 233.203 231.835 229.04C234.242 222.835 232.788 217.504 228.591 217.143L208.558 215.424C205.041 215.122 203.819 210.644 205.837 205.437L237.121 124.63" fill="#96F865"/>
<path d="M237.129 124.634C238.537 121.001 241.006 118.164 243.479 116.739C245.952 115.31 248.429 115.289 249.854 117.29L281.498 161.763C283.537 164.629 282.348 170.495 278.843 174.853L258.885 199.662C254.705 204.857 253.288 211.845 255.72 215.263C257.352 217.553 260.302 217.661 263.326 215.913C264.813 215.055 266.316 213.751 267.692 212.04L287.65 187.231C288.802 185.797 290.065 184.704 291.308 183.983C293.847 182.517 296.324 182.604 297.691 184.526L329.331 229.003C332.177 233.005 328.664 242.081 323.006 245.345L260.078 281.678C256.022 284.019 252.717 282.138 252.704 277.478L252.63 250.941C252.613 245.382 248.678 243.137 243.844 245.929C239.009 248.721 235.099 255.494 235.116 261.053L235.19 287.59C235.203 292.25 231.922 297.937 227.862 300.278L164.934 336.611C159.276 339.88 155.722 334.884 158.534 327.614L189.826 246.799M189.826 246.799L189.213 246.749M189.826 246.799C191.177 243.307 193.646 240.366 196.185 238.895C197.432 238.174 198.695 237.81 199.851 237.909L219.884 239.628C221.263 239.749 222.771 239.314 224.258 238.456C227.286 236.708 230.223 233.203 231.835 229.04C234.242 222.835 232.788 217.504 228.591 217.143L208.558 215.424C205.041 215.122 203.819 210.644 205.837 205.437L237.121 124.63" stroke="#96F865" stroke-width="0.5" stroke-miterlimit="10"/>
</svg>
