<svg width="400" height="400" viewBox="0 0 400 400" fill="none" xmlns="http://www.w3.org/2000/svg">
<path d="M282.361 163.899C282.385 164.024 282.406 164.144 282.423 164.272C282.406 164.144 282.381 164.024 282.361 163.899Z" fill="#96F865" stroke="#96F865" stroke-width="0.14607" stroke-miterlimit="10"/>
<path d="M282.485 164.637C282.497 164.758 282.506 164.878 282.51 164.998C282.506 164.878 282.493 164.758 282.485 164.637Z" fill="#96F865" stroke="#96F865" stroke-width="0.14607" stroke-miterlimit="10"/>
<path d="M249.873 117.291L281.517 161.764C281.638 161.934 281.749 162.121 281.849 162.311C281.749 162.121 281.642 161.934 281.517 161.764L249.873 117.291C249.786 117.171 249.699 117.059 249.604 116.956C249.695 117.059 249.786 117.171 249.873 117.291Z" fill="#96F865"/>
<path d="M249.873 117.291L281.517 161.764M249.873 117.291C249.786 117.171 249.699 117.059 249.604 116.956C249.695 117.059 249.786 117.171 249.873 117.291ZM281.517 161.764C281.638 161.934 281.749 162.121 281.849 162.311C281.749 162.121 281.642 161.934 281.517 161.764Z" stroke="#96F865" stroke-width="0.14607" stroke-miterlimit="10"/>
<path d="M282.367 167.069C282.354 167.14 282.342 167.214 282.33 167.285" stroke="#96F865" stroke-width="0.14607" stroke-miterlimit="10"/>
<path d="M282.483 166.23C282.475 166.325 282.466 166.425 282.454 166.524C282.462 166.425 282.475 166.33 282.483 166.23Z" fill="#96F865" stroke="#96F865" stroke-width="0.14607" stroke-miterlimit="10"/>
<path d="M249.377 116.717C249.377 116.717 249.341 116.681 249.324 116.66C249.345 116.677 249.361 116.697 249.377 116.717Z" fill="#96F865" stroke="#96F865" stroke-width="0.14607" stroke-miterlimit="10"/>
<path d="M281.926 162.516C281.984 162.645 282.046 162.777 282.095 162.914" stroke="#96F865" stroke-width="0.14607" stroke-miterlimit="10"/>
<path d="M282.205 163.192C282.242 163.317 282.284 163.441 282.313 163.573C282.28 163.441 282.242 163.317 282.205 163.192Z" fill="#96F865" stroke="#96F865" stroke-width="0.14607" stroke-miterlimit="10"/>
<path d="M282.222 167.916C282.217 167.941 282.209 167.961 282.205 167.986" stroke="#96F865" stroke-width="0.14607" stroke-miterlimit="10"/>
<path d="M259.238 282.115C259.271 282.103 259.3 282.091 259.332 282.074C259.3 282.087 259.271 282.099 259.238 282.115Z" fill="#96F865" stroke="#96F865" stroke-width="0.14607" stroke-miterlimit="10"/>
<path d="M297.234 183.966C297.234 183.966 297.201 183.93 297.185 183.914C297.201 183.93 297.217 183.95 297.234 183.966Z" fill="#96F865" stroke="#96F865" stroke-width="0.14607" stroke-miterlimit="10"/>
<path d="M155.319 326.277C154.795 327.47 154.437 328.69 154.238 329.893L91.4322 293.395L91.4312 293.394L91.4311 293.394L91.4279 293.391C91.4248 293.389 91.4187 293.384 91.4097 293.375C91.3922 293.357 91.3589 293.319 91.3173 293.249C91.2322 293.105 91.1156 292.832 91.0496 292.383C90.9153 291.469 91.0254 290.028 91.7474 288.16C91.7476 288.16 91.7478 288.16 91.748 288.159L123.044 207.346L123.045 207.343C124.153 204.474 126.143 202.217 127.889 201.209L127.894 201.206C128.731 200.72 129.275 200.659 129.506 200.679L149.534 202.398C149.535 202.398 149.536 202.398 149.537 202.398C149.537 202.398 149.538 202.398 149.538 202.398C151.849 202.598 154.075 201.858 155.96 200.771L155.962 200.77C159.786 198.562 163.199 194.374 165.052 189.586L166.148 186.756L163.501 185.271L137.757 170.827L170.337 85.178C170.339 85.1748 170.34 85.1717 170.341 85.1685C171.499 82.1876 173.479 80.0281 175.176 79.0478L175.178 79.0464C175.808 78.6818 176.292 78.5429 176.593 78.509C176.77 78.489 176.856 78.5063 176.883 78.5149L239.773 115.069C237.323 117.063 235.192 119.974 233.876 123.368L233.875 123.369L202.592 204.175C202.592 204.175 202.592 204.176 202.592 204.176C201.402 207.248 201.019 210.458 201.764 213.193C202.55 216.074 204.731 218.609 208.277 218.914L208.278 218.914L228.31 220.633C228.311 220.633 228.311 220.633 228.311 220.633C228.624 220.66 229.038 220.747 229.331 221.824C229.665 223.049 229.612 225.143 228.59 227.778L228.589 227.78C227.22 231.318 224.761 234.138 222.529 235.427C221.441 236.054 220.652 236.183 220.206 236.145L220.202 236.144L200.17 234.425C200.169 234.425 200.169 234.425 200.169 234.425C198.082 234.246 196.1 234.915 194.452 235.868L194.45 235.869C191.12 237.797 188.174 241.419 186.581 245.539L155.319 326.277ZM176.893 78.519C176.893 78.5193 176.889 78.5182 176.883 78.5151C176.89 78.5172 176.893 78.5188 176.893 78.519Z" stroke="#96F865" stroke-width="7" stroke-miterlimit="10"/>
<path d="M307.017 197.582L297.726 184.521C297.643 184.405 297.556 184.297 297.465 184.193" stroke="#96F865" stroke-width="0.14607" stroke-miterlimit="10"/>
<path d="M258.928 282.25C258.928 282.25 258.963 282.24 258.978 282.23C258.963 282.235 258.943 282.24 258.928 282.25Z" fill="#96F865" stroke="#96F865" stroke-width="0.14607" stroke-miterlimit="10"/>
<path d="M282.52 165.422C282.52 165.534 282.52 165.646 282.516 165.758C282.516 165.646 282.52 165.534 282.52 165.422Z" fill="#96F865" stroke="#96F865" stroke-width="0.14607" stroke-miterlimit="10"/>
<path d="M258.586 282.37C258.586 282.37 258.595 282.37 258.605 282.37C258.605 282.37 258.595 282.37 258.586 282.37Z" fill="#96F865" stroke="#96F865" stroke-width="0.14607" stroke-miterlimit="10"/>
<path d="M161.653 337.627C161.736 337.627 161.823 337.627 161.905 337.619C161.818 337.623 161.736 337.627 161.653 337.627Z" fill="#96F865" stroke="#96F865" stroke-width="0.14607" stroke-miterlimit="10"/>
<path d="M162.554 337.541C162.649 337.525 162.74 337.504 162.836 337.479C162.74 337.504 162.645 337.521 162.554 337.541Z" fill="#96F865" stroke="#96F865" stroke-width="0.14607" stroke-miterlimit="10"/>
<path d="M162.057 337.614C162.181 337.602 162.309 337.585 162.438 337.565" stroke="#96F865" stroke-width="0.14607" stroke-miterlimit="10"/>
<path d="M162.989 337.447C163.109 337.414 163.233 337.377 163.354 337.339C163.229 337.381 163.109 337.418 162.989 337.447Z" fill="#96F865" stroke="#96F865" stroke-width="0.14607" stroke-miterlimit="10"/>
<path d="M235.2 287.588C235.212 292.248 231.931 297.936 227.872 300.276C231.927 297.936 235.212 292.248 235.2 287.588Z" fill="#96F865"/>
<path d="M235.2 287.588C235.212 292.248 231.931 297.936 227.872 300.276M235.2 287.588C235.212 292.248 231.927 297.936 227.872 300.276M235.2 287.588L235.175 279.013M227.872 300.276L187.976 323.308" stroke="#96F865" stroke-width="0.14607" stroke-miterlimit="10"/>
<path d="M259.713 281.888C259.667 281.913 259.626 281.929 259.58 281.954C259.626 281.933 259.667 281.913 259.713 281.888Z" fill="#96F865" stroke="#96F865" stroke-width="0.14607" stroke-miterlimit="10"/>
<path d="M163.424 337.311C163.569 337.261 163.714 337.203 163.863 337.145C163.714 337.207 163.569 337.261 163.424 337.311Z" fill="#96F865" stroke="#96F865" stroke-width="0.14607" stroke-miterlimit="10"/>
<path d="M323.04 245.345C325.518 243.916 327.581 241.377 328.881 238.635C327.581 241.377 325.514 243.916 323.04 245.345Z" fill="#96F865"/>
<path d="M323.04 245.345L260.113 281.679C260.051 281.716 259.984 281.749 259.922 281.782M323.04 245.345C325.518 243.916 327.581 241.377 328.881 238.635C327.581 241.377 325.514 243.916 323.04 245.345Z" stroke="#96F865" stroke-width="0.14607" stroke-miterlimit="10"/>
<path d="M161.12 337.599C161.017 337.586 160.913 337.57 160.814 337.549" stroke="#96F865" stroke-width="0.14607" stroke-miterlimit="10"/>
<path d="M159.981 337.273C159.906 337.236 159.832 337.198 159.757 337.153C159.832 337.194 159.906 337.236 159.981 337.273Z" fill="#96F865" stroke="#96F865" stroke-width="0.14607" stroke-miterlimit="10"/>
<path d="M160.633 337.509C160.579 337.497 160.526 337.48 160.472 337.464C160.526 337.48 160.579 337.493 160.633 337.509Z" fill="#96F865" stroke="#96F865" stroke-width="0.14607" stroke-miterlimit="10"/>
<path d="M160.302 337.405C160.252 337.388 160.206 337.368 160.161 337.347C160.206 337.368 160.256 337.384 160.302 337.405Z" fill="#96F865" stroke="#96F865" stroke-width="0.14607" stroke-miterlimit="10"/>
<path d="M161.487 337.631C161.416 337.631 161.346 337.623 161.28 337.619C161.35 337.623 161.416 337.631 161.487 337.631Z" fill="#96F865" stroke="#96F865" stroke-width="0.14607" stroke-miterlimit="10"/>
<path d="M164.015 337.093C164.126 337.043 164.242 336.993 164.354 336.935C164.238 336.989 164.126 337.043 164.015 337.093Z" fill="#96F865" stroke="#96F865" stroke-width="0.14607" stroke-miterlimit="10"/>
<path d="M164.481 336.869C164.634 336.791 164.792 336.708 164.949 336.617" stroke="#96F865" stroke-width="0.14607" stroke-miterlimit="10"/>
<path d="M329.593 236.855C329.456 237.253 329.303 237.651 329.133 238.044" stroke="#96F865" stroke-width="0.14607" stroke-miterlimit="10"/>
<path d="M237.129 124.634C238.537 121.001 241.006 118.164 243.479 116.739C245.952 115.31 248.429 115.289 249.854 117.29L281.498 161.763C283.537 164.629 282.348 170.495 278.843 174.853L258.885 199.662C254.705 204.857 253.288 211.845 255.72 215.263C257.352 217.553 260.302 217.661 263.326 215.913C264.813 215.055 266.316 213.751 267.692 212.04L287.65 187.231C288.802 185.797 290.065 184.704 291.308 183.983C293.847 182.517 296.324 182.604 297.691 184.526L329.331 229.003C332.177 233.005 328.664 242.081 323.006 245.345L260.078 281.678C256.022 284.019 252.717 282.138 252.704 277.478L252.63 250.941C252.613 245.382 248.678 243.137 243.844 245.929C239.009 248.721 235.099 255.494 235.116 261.053L235.19 287.59C235.203 292.25 231.922 297.937 227.862 300.278L164.934 336.611C159.276 339.88 155.722 334.884 158.534 327.614L189.826 246.799C191.177 243.307 193.646 240.366 196.185 238.895C197.432 238.174 198.695 237.81 199.851 237.909L219.884 239.628C221.263 239.749 222.771 239.314 224.258 238.456C227.286 236.708 230.223 233.203 231.835 229.04C234.242 222.835 232.788 217.504 228.591 217.143L208.558 215.424C205.041 215.122 203.819 210.644 205.837 205.437L237.121 124.63" fill="#96F865"/>
<path d="M237.129 124.634C238.537 121.001 241.006 118.164 243.479 116.739C245.952 115.31 248.429 115.289 249.854 117.29L281.498 161.763C283.537 164.629 282.348 170.495 278.843 174.853L258.885 199.662C254.705 204.857 253.288 211.845 255.72 215.263C257.352 217.553 260.302 217.661 263.326 215.913C264.813 215.055 266.316 213.751 267.692 212.04L287.65 187.231C288.802 185.797 290.065 184.704 291.308 183.983C293.847 182.517 296.324 182.604 297.691 184.526L329.331 229.003C332.177 233.005 328.664 242.081 323.006 245.345L260.078 281.678C256.022 284.019 252.717 282.138 252.704 277.478L252.63 250.941C252.613 245.382 248.678 243.137 243.844 245.929C239.009 248.721 235.099 255.494 235.116 261.053L235.19 287.59C235.203 292.25 231.922 297.937 227.862 300.278L164.934 336.611C159.276 339.88 155.722 334.884 158.534 327.614L189.826 246.799M189.826 246.799L189.213 246.749M189.826 246.799C191.177 243.307 193.646 240.366 196.185 238.895C197.432 238.174 198.695 237.81 199.851 237.909L219.884 239.628C221.263 239.749 222.771 239.314 224.258 238.456C227.286 236.708 230.223 233.203 231.835 229.04C234.242 222.835 232.788 217.504 228.591 217.143L208.558 215.424C205.041 215.122 203.819 210.644 205.837 205.437L237.121 124.63" stroke="#96F865" stroke-width="0.5" stroke-miterlimit="10"/>
</svg>
