<svg width="570" height="72" viewBox="0 0 570 72" fill="none" xmlns="http://www.w3.org/2000/svg">
<path d="M35.0845 43.3254C34.0386 45.1368 31.7195 45.7582 29.9082 44.7124L20.499 39.2821C18.6877 38.2362 16.3686 38.8577 15.3227 40.669L0.513612 66.3159C-0.945316 68.8434 0.877397 72 3.79525 72H33.4096C35.5014 72 37.199 70.3023 37.199 68.2106V57.3463C37.199 55.2545 38.8967 53.5569 40.9884 53.5569C43.0802 53.5569 44.7779 55.2545 44.7779 57.3463V68.2106C44.7779 70.3023 46.4755 72 48.5673 72H78.1816C81.0995 72 82.9222 68.8434 81.4633 66.3159L66.658 40.669C65.6121 38.8577 63.293 38.2362 61.4817 39.2821L52.0725 44.7124C50.2612 45.7582 47.942 45.1368 46.8962 43.3254C45.8503 41.5141 46.4717 39.195 48.2831 38.1491L57.6922 32.7188C59.5036 31.6729 60.125 29.3538 59.0792 27.5425L44.2701 1.89566C42.8112 -0.631886 39.1657 -0.631886 37.7068 1.89566L22.9015 27.5425C21.8556 29.3538 22.4771 31.6729 24.2885 32.7188L33.6976 38.1491C35.5089 39.195 36.1304 41.5141 35.0845 43.3254Z" fill="#001B03"/>
<path d="M522.957 70.7018L501.288 13.8807H500.788V55.0236C500.788 58.8849 500.988 61.9806 501.387 64.3107C501.853 66.5742 502.652 68.5381 503.784 70.2025V70.7018H488.805V70.2025C489.937 68.6047 490.702 66.6408 491.102 64.3107C491.568 61.9806 491.801 58.8849 491.801 55.0236V16.3772C491.801 12.6491 491.601 9.68654 491.202 7.48959C490.802 5.29264 490.003 3.39528 488.805 1.79749V1.29818H508.577L529.448 56.0222H529.948L550.519 1.29818H569.393V1.79749C568.195 3.46185 567.362 5.3925 566.896 7.58945C566.497 9.7864 566.297 12.7157 566.297 16.3772V55.3232C566.297 59.1845 566.497 62.2136 566.896 64.4105C567.362 66.5409 568.195 68.4716 569.393 70.2025V70.7018H551.518V70.2025C552.783 68.4716 553.615 66.5409 554.014 64.4105C554.414 62.2136 554.613 59.1845 554.613 55.3232V14.38H554.114L532.944 70.7018H522.957Z" fill="#001B03"/>
<path d="M445.056 72C438.998 72 433.839 70.8349 429.578 68.5048C425.317 66.1082 422.055 62.6796 419.791 58.2191C417.594 53.7587 416.496 48.3661 416.496 42.0416V16.4771C416.496 12.8155 416.263 9.88626 415.797 7.68931C415.331 5.49236 414.532 3.52842 413.4 1.79749V1.29818H431.475V1.79749C430.343 3.52842 429.544 5.49236 429.078 7.68931C428.612 9.88626 428.379 12.8155 428.379 16.4771V42.1415C428.379 46.2025 429.045 49.7642 430.377 52.8266C431.708 55.8225 433.705 58.1526 436.368 59.8169C439.098 61.4813 442.393 62.3134 446.255 62.3134C451.913 62.3134 456.307 60.5492 459.436 57.0208C462.565 53.4924 464.13 48.5659 464.13 42.2413V16.577C464.13 12.8488 463.897 9.85297 463.431 7.58945C463.031 5.32593 462.266 3.39527 461.134 1.79749V1.29818H476.413V1.79749C475.214 3.39527 474.382 5.32593 473.916 7.58945C473.517 9.85297 473.317 12.8488 473.317 16.577V41.9417C473.317 51.3953 470.854 58.785 465.927 64.1109C461.001 69.3703 454.044 72 445.056 72Z" fill="#001B03"/>
<path d="M338.135 70.2025C339.334 68.6713 340.132 66.7406 340.532 64.4105C340.998 62.0139 341.231 58.9514 341.231 55.2233V5.3925L338.734 1.59777V1.29818H356.41L388.166 53.9251H388.765V16.577C388.765 12.8488 388.532 9.85297 388.066 7.58945C387.666 5.32593 386.868 3.39528 385.669 1.79749V1.29818H400.948V1.79749C399.75 3.3287 398.917 5.25935 398.451 7.58945C398.052 9.85297 397.852 12.8488 397.852 16.577V70.7018H385.07L350.917 14.5797H350.318V55.2233C350.318 58.9514 350.518 61.9806 350.917 64.3107C351.383 66.6408 352.216 68.6047 353.414 70.2025V70.7018H338.135V70.2025Z" fill="#001B03"/>
<path d="M292.481 72C285.757 72 279.732 70.4688 274.406 67.4064C269.08 64.344 264.886 60.0832 261.823 54.6241C258.827 49.165 257.33 42.9736 257.33 36.0499C257.33 29.1262 258.827 22.9348 261.823 17.4757C264.886 12.0166 269.08 7.75589 274.406 4.69348C279.732 1.56449 285.757 0 292.481 0C299.271 0 305.33 1.56449 310.655 4.69348C316.048 7.75589 320.209 12.0166 323.138 17.4757C326.134 22.9348 327.632 29.1262 327.632 36.0499C327.632 42.9736 326.134 49.165 323.138 54.6241C320.209 60.0832 316.048 64.344 310.655 67.4064C305.33 70.4688 299.271 72 292.481 72ZM292.481 63.6116C296.941 63.6116 300.836 62.4799 304.164 60.2164C307.56 57.9528 310.156 54.7573 311.954 50.6297C313.751 46.4355 314.65 41.5756 314.65 36.0499C314.65 30.5243 313.751 25.6644 311.954 21.4702C310.156 17.276 307.56 14.0472 304.164 11.7836C300.836 9.45353 296.941 8.28849 292.481 8.28849C288.02 8.28849 284.126 9.45353 280.797 11.7836C277.468 14.0472 274.905 17.276 273.108 21.4702C271.31 25.6644 270.411 30.5243 270.411 36.0499C270.411 41.5756 271.31 46.4355 273.108 50.6297C274.905 54.7573 277.468 57.9528 280.797 60.2164C284.126 62.4799 288.02 63.6116 292.481 63.6116Z" fill="#001B03"/>
<path d="M204.303 54.4244L217.884 35.7503L203.804 15.7781C201.407 12.4494 199.343 9.71982 197.612 7.58945C195.881 5.45907 194.017 3.52842 192.02 1.79749V1.29818H212.192V1.69763C212.192 3.42856 212.691 5.52565 213.69 7.98889C214.689 10.3856 216.087 12.9154 217.884 15.5784L224.775 25.8641H225.274L232.564 15.3786C234.495 12.6491 235.893 10.1526 236.758 7.88903C237.624 5.62551 237.956 3.595 237.757 1.79749V1.29818H254.334V1.79749C252.27 3.52842 250.406 5.42579 248.741 7.48959C247.077 9.55339 244.913 12.4161 242.25 16.0777L229.967 33.2538L245.646 54.8238C248.642 59.018 251.005 62.2136 252.736 64.4105C254.533 66.6075 256.397 68.5381 258.328 70.2025V70.7018H238.156V70.3023C238.156 68.4383 237.657 66.3745 236.658 64.111C235.66 61.7809 234.095 59.0513 231.965 55.9223L223.177 43.1401H222.578L213.89 55.3232C211.693 58.3856 210.095 61.1817 209.096 63.7115C208.098 66.2413 207.665 68.4383 207.798 70.3023V70.7018H190.822V70.2025C193.085 68.3384 195.149 66.3079 197.013 64.111C198.877 61.8474 201.307 58.6186 204.303 54.4244Z" fill="#001B03"/>
<path d="M121.977 70.2025C123.442 68.8044 124.607 67.2066 125.472 65.4091C126.404 63.6116 127.536 60.982 128.867 57.5201C129 57.1872 129.134 56.8544 129.267 56.5215C129.4 56.1886 129.533 55.8557 129.666 55.5229L150.837 1.29818H161.023L182.693 55.0236C182.826 55.2899 182.926 55.5562 182.992 55.8225C183.125 56.0888 183.225 56.3551 183.292 56.6214C184.756 60.3495 185.988 63.1789 186.987 65.1096C187.985 67.0402 189.184 68.7379 190.582 70.2025V70.7018H171.608V70.2025C172.607 68.5381 172.939 66.5076 172.607 64.111C172.274 61.6477 171.441 58.7184 170.11 55.3232L154.632 15.6782H154.132L138.953 55.3232C137.622 58.785 136.856 61.7143 136.656 64.111C136.457 66.5076 136.923 68.5381 138.055 70.2025V70.7018H121.977V70.2025ZM137.755 51.0291V43.0402H170.21V51.0291H137.755Z" fill="#001B03"/>
</svg>
