<svg width="550" height="72" viewBox="0 0 550 72" fill="none" xmlns="http://www.w3.org/2000/svg">
<path d="M35.0845 43.3254C34.0386 45.1368 31.7195 45.7582 29.9082 44.7124L20.499 39.2821C18.6877 38.2362 16.3686 38.8577 15.3227 40.669L0.513612 66.3159C-0.945316 68.8434 0.877397 72 3.79525 72H33.4096C35.5014 72 37.199 70.3023 37.199 68.2106V57.3463C37.199 55.2545 38.8967 53.5569 40.9884 53.5569C43.0802 53.5569 44.7779 55.2545 44.7779 57.3463V68.2106C44.7779 70.3023 46.4755 72 48.5673 72H78.1816C81.0995 72 82.9222 68.8434 81.4633 66.3159L66.658 40.669C65.6121 38.8577 63.293 38.2362 61.4817 39.2821L52.0725 44.7124C50.2612 45.7582 47.942 45.1368 46.8962 43.3254C45.8503 41.5141 46.4717 39.195 48.2831 38.1491L57.6922 32.7188C59.5036 31.673 60.125 29.3538 59.0792 27.5425L44.2701 1.89566C42.8112 -0.631886 39.1657 -0.631886 37.7068 1.89566L22.9015 27.5425C21.8556 29.3538 22.4771 31.673 24.2885 32.7188L33.6976 38.1491C35.5089 39.195 36.1304 41.5141 35.0845 43.3254Z" fill="#96F865"/>
<path d="M502.957 70.7018L481.288 13.8807H480.788V55.0236C480.788 58.8849 480.988 61.9806 481.387 64.3107C481.853 66.5742 482.652 68.5381 483.784 70.2025V70.7018H468.805V70.2025C469.937 68.6047 470.702 66.6408 471.102 64.3107C471.568 61.9806 471.801 58.8849 471.801 55.0236V16.3772C471.801 12.6491 471.601 9.68654 471.202 7.48959C470.802 5.29264 470.003 3.39528 468.805 1.79749V1.29818H488.577L509.448 56.0222H509.948L530.519 1.29818H549.393V1.79749C548.195 3.46185 547.362 5.3925 546.896 7.58945C546.497 9.7864 546.297 12.7157 546.297 16.3772V55.3232C546.297 59.1845 546.497 62.2136 546.896 64.4105C547.362 66.5409 548.195 68.4716 549.393 70.2025V70.7018H531.518V70.2025C532.783 68.4716 533.615 66.5409 534.014 64.4105C534.414 62.2136 534.613 59.1845 534.613 55.3232V14.38H534.114L512.944 70.7018H502.957Z" fill="#96F865"/>
<path d="M425.056 72C418.998 72 413.839 70.8349 409.578 68.5049C405.317 66.1082 402.055 62.6796 399.791 58.2191C397.594 53.7587 396.496 48.3661 396.496 42.0416V16.4771C396.496 12.8155 396.263 9.88626 395.797 7.68931C395.331 5.49236 394.532 3.52842 393.4 1.79749V1.29818H411.475V1.79749C410.343 3.52842 409.544 5.49236 409.078 7.68931C408.612 9.88626 408.379 12.8155 408.379 16.4771V42.1415C408.379 46.2025 409.045 49.7642 410.377 52.8266C411.708 55.8225 413.705 58.1526 416.368 59.8169C419.098 61.4813 422.393 62.3134 426.255 62.3134C431.913 62.3134 436.307 60.5492 439.436 57.0208C442.565 53.4924 444.13 48.5659 444.13 42.2413V16.577C444.13 12.8488 443.897 9.85297 443.431 7.58945C443.031 5.32593 442.266 3.39528 441.134 1.79749V1.29818H456.413V1.79749C455.214 3.39528 454.382 5.32593 453.916 7.58945C453.517 9.85297 453.317 12.8488 453.317 16.577V41.9417C453.317 51.3953 450.854 58.785 445.927 64.1109C441.001 69.3703 434.044 72 425.056 72Z" fill="#96F865"/>
<path d="M318.135 70.2025C319.334 68.6713 320.133 66.7406 320.532 64.4105C320.998 62.0139 321.231 58.9514 321.231 55.2233V5.3925L318.734 1.59777V1.29818H336.41L368.166 53.9251H368.765V16.577C368.765 12.8488 368.532 9.85297 368.066 7.58945C367.667 5.32593 366.868 3.39528 365.669 1.79749V1.29818H380.948V1.79749C379.75 3.3287 378.918 5.25935 378.452 7.58945C378.052 9.85297 377.852 12.8488 377.852 16.577V70.7018H365.07L330.918 14.5797H330.318V55.2233C330.318 58.9514 330.518 61.9806 330.918 64.3107C331.384 66.6408 332.216 68.6047 333.414 70.2025V70.7018H318.135V70.2025Z" fill="#96F865"/>
<path d="M272.481 72C265.757 72 259.732 70.4688 254.406 67.4064C249.08 64.344 244.886 60.0832 241.823 54.6241C238.827 49.165 237.33 42.9736 237.33 36.0499C237.33 29.1262 238.827 22.9348 241.823 17.4757C244.886 12.0166 249.08 7.75589 254.406 4.69348C259.732 1.56449 265.757 5.96046e-08 272.481 5.96046e-08C279.271 5.96046e-08 285.33 1.56449 290.655 4.69348C296.048 7.75589 300.209 12.0166 303.138 17.4757C306.134 22.9348 307.632 29.1262 307.632 36.0499C307.632 42.9736 306.134 49.165 303.138 54.6241C300.209 60.0832 296.048 64.344 290.655 67.4064C285.33 70.4688 279.271 72 272.481 72ZM272.481 63.6116C276.941 63.6116 280.836 62.4799 284.164 60.2164C287.56 57.9528 290.156 54.7573 291.954 50.6297C293.751 46.4355 294.65 41.5756 294.65 36.0499C294.65 30.5243 293.751 25.6644 291.954 21.4702C290.156 17.276 287.56 14.0472 284.164 11.7836C280.836 9.45353 276.941 8.28849 272.481 8.28849C268.02 8.28849 264.126 9.45353 260.797 11.7836C257.468 14.0472 254.905 17.276 253.108 21.4702C251.31 25.6644 250.411 30.5243 250.411 36.0499C250.411 41.5756 251.31 46.4355 253.108 50.6297C254.905 54.7573 257.468 57.9528 260.797 60.2164C264.126 62.4799 268.02 63.6116 272.481 63.6116Z" fill="#96F865"/>
<path d="M184.303 54.4244L197.884 35.7503L183.804 15.7781C181.407 12.4494 179.343 9.71982 177.612 7.58945C175.882 5.45907 174.017 3.52842 172.02 1.79749V1.29818H192.192V1.69763C192.192 3.42856 192.692 5.52565 193.69 7.98889C194.689 10.3856 196.087 12.9154 197.884 15.5784L204.775 25.8641H205.274L212.564 15.3786C214.495 12.6491 215.893 10.1526 216.758 7.88903C217.624 5.62551 217.956 3.595 217.757 1.79749V1.29818H234.334V1.79749C232.27 3.52842 230.406 5.42579 228.741 7.48959C227.077 9.55339 224.913 12.4161 222.25 16.0777L209.968 33.2538L225.646 54.8238C228.642 59.018 231.005 62.2136 232.736 64.4105C234.533 66.6075 236.397 68.5381 238.328 70.2025V70.7018H218.156V70.3024C218.156 68.4383 217.657 66.3745 216.658 64.111C215.66 61.7809 214.095 59.0513 211.965 55.9223L203.177 43.1401H202.578L193.89 55.3232C191.693 58.3856 190.095 61.1817 189.097 63.7115C188.098 66.2413 187.665 68.4383 187.798 70.3024V70.7018H170.822V70.2025C173.085 68.3384 175.149 66.3079 177.013 64.111C178.877 61.8474 181.307 58.6186 184.303 54.4244Z" fill="#96F865"/>
<path d="M101.977 70.2025C103.442 68.8044 104.607 67.2066 105.472 65.4091C106.404 63.6116 107.536 60.982 108.867 57.5201C109 57.1872 109.134 56.8544 109.267 56.5215C109.4 56.1886 109.533 55.8557 109.666 55.5229L130.837 1.29818H141.023L162.693 55.0236C162.826 55.2899 162.926 55.5562 162.992 55.8225C163.125 56.0888 163.225 56.3551 163.292 56.6214C164.756 60.3495 165.988 63.1789 166.987 65.1096C167.985 67.0402 169.184 68.7379 170.582 70.2025V70.7018H151.608V70.2025C152.607 68.5381 152.939 66.5076 152.607 64.111C152.274 61.6477 151.442 58.7184 150.11 55.3232L134.632 15.6782H134.132L118.953 55.3232C117.622 58.785 116.856 61.7143 116.657 64.111C116.457 66.5076 116.923 68.5381 118.055 70.2025V70.7018H101.977V70.2025ZM117.755 51.0291V43.0402H150.21V51.0291H117.755Z" fill="#96F865"/>
</svg>
