<svg width="228" height="200" viewBox="0 0 228 200" fill="none" xmlns="http://www.w3.org/2000/svg">
<path d="M97.457 120.348C94.5518 125.38 88.1098 127.106 83.0783 124.201L56.9418 109.117C51.9102 106.212 45.4682 107.938 42.563 112.97L1.4267 184.211C-2.62588 191.232 2.43721 200 10.5424 200H92.8044C98.6149 200 103.331 195.284 103.331 189.474V159.295C103.331 153.485 108.046 148.769 113.857 148.769C119.667 148.769 124.383 153.485 124.383 159.295V189.474C124.383 195.284 129.099 200 134.909 200H217.171C225.276 200 230.339 191.232 226.287 184.211L185.161 112.97C182.256 107.938 175.814 106.212 170.782 109.117L144.646 124.201C139.614 127.106 133.172 125.38 130.267 120.348C127.362 115.317 129.088 108.875 134.12 105.97L160.256 90.8856C165.288 87.9804 167.014 81.5384 164.109 76.5069L122.972 5.26572C118.92 -1.75524 108.794 -1.75524 104.741 5.26572L63.6154 76.5069C60.7101 81.5384 62.4364 87.9804 67.4679 90.8856L93.6044 105.97C98.6359 108.875 100.362 115.317 97.457 120.348Z" fill="#96F865"/>
</svg>
